/* XPM */
static char * system_icon_xpm[] = {
"16 16 7 1",
" 	c None",
".	c #FFFFFF",
"+	c #000000",
"@	c #FFDF00",
"#	c #FFFF95",
"$	c #FFED0D",
"%	c #FDF95B",
".....++++++.....",
"...++@@@@@@++...",
"..+##$$$$$@@@+..",
".+#$$$$$$$$$@@+.",
".+$$$$$$$$$$$@+.",
"+#$$$$%%%%$$$@@+",
"+$$$$%%%%%%$$$@+",
"+$$$$%%%%%%$$$@+",
"+$$$$%%%%%%$$$@+",
"+#$$$$%%%$$$$@@+",
"+#$$$$$$$$$$$@@+",
".+@$$$$$$$$@@@+.",
".+@@@$$$$$@@@@+.",
"..+@@@@@@@@@@+..",
"...++@@@@@@++...",
".....++++++....."};
